HIERARCHY
ROOT Hips
{
 OFFSET 0.000000 0.000000 0.000000
 CHANNELS 6 Xposition Yposition Zposition Yrotation Xrotation Zrotation
 JOINT Chest
 {
  OFFSET 0.000000 9.588913 -0.003946
  CHANNELS 3 Yrotation Xrotation Zrotation
  JOINT Chest2
  {
   OFFSET 0.000000 9.541882 0.008053
   CHANNELS 3 Yrotation Xrotation Zrotation
   JOINT Chest3
   {
    OFFSET 0.000000 9.501360 0.000000
    CHANNELS 3 Yrotation Xrotation Zrotation
    JOINT Chest4
    {
     OFFSET 0.000000 9.491660 0.000000
     CHANNELS 3 Yrotation Xrotation Zrotation
     JOINT Neck
     {
      OFFSET 0.000000 14.331917 0.000000
      CHANNELS 3 Yrotation Xrotation Zrotation
      JOINT Head
      {
       OFFSET 0.000000 8.884799 0.017034
       CHANNELS 3 Yrotation Xrotation Zrotation
       End Site
       {
        OFFSET 0.000000 16.896195 0.008993
       }
      }
     }
     JOINT RightCollar
     {
      OFFSET -2.923010 9.499495 0.000000
      CHANNELS 3 Yrotation Xrotation Zrotation
      JOINT RightShoulder
      {
       OFFSET -13.795216 0.000000 0.000000
       CHANNELS 3 Yrotation Xrotation Zrotation
       JOINT RightElbow
       {
        OFFSET -30.272209 0.000000 0.000000
        CHANNELS 3 Yrotation Xrotation Zrotation
        JOINT RightWrist
        {
         OFFSET -24.478199 0.000000 0.000000
         CHANNELS 3 Yrotation Xrotation Zrotation
         End Site
         {
          OFFSET -18.090752 0.000000 0.000000
         }
        }
       }
      }
     }
     JOINT LeftCollar
     {
      OFFSET 2.923010 9.499495 0.000000
      CHANNELS 3 Yrotation Xrotation Zrotation
      JOINT LeftShoulder
      {
       OFFSET 13.795216 0.000000 0.000000
       CHANNELS 3 Yrotation Xrotation Zrotation
       JOINT LeftElbow
       {
        OFFSET 30.272209 0.000000 0.000000
        CHANNELS 3 Yrotation Xrotation Zrotation
        JOINT LeftWrist
        {
         OFFSET 24.478199 0.000000 0.000000
         CHANNELS 3 Yrotation Xrotation Zrotation
         End Site
         {
          OFFSET 18.090752 0.000000 0.000000
         }
        }
       }
      }
     }
    }
   }
  }
 }
 JOINT RightHip
 {
  OFFSET -7.826875 0.019532 0.001973
  CHANNELS 3 Yrotation Xrotation Zrotation
  JOINT RightKnee
  {
   OFFSET 0.000000 -40.546152 -0.001885
   CHANNELS 3 Yrotation Xrotation Zrotation
   JOINT RightAnkle
   {
    OFFSET 0.000000 -39.417092 -0.003189
    CHANNELS 3 Yrotation Xrotation Zrotation
    JOINT RightToe
    {
     OFFSET 0.000000 -7.579396 17.243563
     CHANNELS 3 Yrotation Xrotation Zrotation
     End Site
     {
      OFFSET 0.000000 -1.500329 6.694466
     }
    }
   }
  }
 }
 JOINT LeftHip
 {
  OFFSET 7.826875 0.019532 0.001973
  CHANNELS 3 Yrotation Xrotation Zrotation
  JOINT LeftKnee
  {
   OFFSET 0.000000 -40.546152 -0.001885
   CHANNELS 3 Yrotation Xrotation Zrotation
   JOINT LeftAnkle
   {
    OFFSET 0.000000 -39.417092 -0.003189
    CHANNELS 3 Yrotation Xrotation Zrotation
    JOINT LeftToe
    {
     OFFSET 0.000000 -7.579396 17.243563
     CHANNELS 3 Yrotation Xrotation Zrotation
     End Site
     {
      OFFSET 0.000000 -1.500329 6.694466
     }
    }
   }
  }
 }
}
MOTION
Frames: 17
Frame Time: 0.008333
0.000000 87.345680 0.000000 0.000000 -5.767889 0.000000 0.000000 11.653876 0.000000 0.000000 -5.885988 0.000000 0.000000 -0.000000 0.000000 0.000000 -0.000000 0.000000 0.000000 12.528808 0.000000 0.000000 0.711711 0.000000 0.000000 -0.000000 0.000000 0.000000 -0.000000 0.000000 2.309063 -0.000000 0.000000 -2.309063 -0.000000 -0.000000 0.000000 -0.000000 0.000000 0.000000 0.000000 0.000000 -2.309063 0.000000 0.000000 2.309063 -0.000000 0.000000 0.000000 8.520374 0.000000 0.000000 1.905768 0.000000 -0.000000 -4.658254 0.000000 0.000000 -0.000000 0.000000 0.000000 8.520374 0.000000 0.000000 1.905768 0.000000 -0.000000 -4.658254 0.000000 0.000000 -0.000000 0.000000
-9.111964 89.191348 -3.102871 -132.453042 -5.540068 0.072519 0.141550 2.286483 0.243538 0.080580 1.307531 0.140183 0.101231 1.634383 0.175527 0.080580 1.307531 0.140183 2.202243 21.915157 -0.426253 2.460381 -2.301644 -0.960468 -2.610984 -1.507548 0.420085 7.916172 -2.210430 87.802509 3.437806 10.781058 3.599103 -2.757569 -4.205257 -0.658779 0.921275 -1.754057 0.771207 -9.962917 -2.639621 -89.463583 2.826280 9.233302 0.268058 0.266571 -3.729719 -1.343771 -1.961997 7.995026 1.908612 -3.020694 0.670279 -0.503738 -4.018877 -3.248071 -1.586508 -0.015189 0.000169 -0.003341 1.562117 8.116593 -0.795978 3.053147 1.655179 0.239594 2.951277 -4.239878 0.983654 0.009421 0.011096 -0.013589
-9.115310 89.190789 -3.103657 -132.449309 -5.534387 0.071718 0.137865 2.285296 0.245492 0.078492 1.306858 0.139831 0.098620 1.633542 0.175080 0.078492 1.306858 0.139831 2.204067 21.914812 -0.429520 2.463097 -2.301941 -0.964395 -2.600430 -1.507728 0.424868 7.920485 -2.210668 87.793855 3.447113 10.785845 3.602384 -2.754361 -4.198327 -0.657661 0.935095 -1.753180 0.763607 -9.951468 -2.621767 -89.467146 2.837523 9.230905 0.277239 0.272691 -3.729528 -1.340002 -1.965663 7.993651 1.898966 -3.018854 0.669285 -0.503261 -3.948184 -3.249846 -1.582192 -0.010513 0.002564 -0.002229 1.546193 8.115517 -0.799414 3.057145 1.649453 0.238787 2.960996 -4.242768 0.988235 0.008123 0.012361 -0.012032
-9.119754 89.190186 -3.103905 -132.442079 -5.528512 0.073844 0.134868 2.283886 0.244913 0.076568 1.305955 0.138884 0.096211 1.632414 0.173890 0.076568 1.305955 0.138884 2.205184 21.914613 -0.432170 2.464911 -2.302098 -0.967497 -2.593849 -1.506994 0.433289 7.921493 -2.208713 87.783204 3.458065 10.790129 3.606416 -2.750589 -4.187594 -0.657572 0.946535 -1.750007 0.758162 -9.938199 -2.607415 -89.467805 2.849683 9.230440 0.281847 0.278728 -3.735334 -1.335951 -1.972958 7.989980 1.887884 -3.015962 0.671377 -0.503242 -3.906715 -3.251132 -1.577540 -0.006643 0.002094 -0.001069 1.525949 8.113583 -0.803798 3.066228 1.642608 0.237821 2.962887 -4.241613 0.990957 0.005892 0.011376 -0.010878
-9.125280 89.189611 -3.104057 -132.434554 -5.525530 0.076890 0.132579 2.283891 0.242972 0.075062 1.305915 0.137383 0.094323 1.632365 0.172008 0.075062 1.305915 0.137383 2.206296 21.913083 -0.432521 2.466175 -2.303852 -0.968126 -2.591527 -1.509690 0.442335 7.922831 -2.204952 87.775942 3.467932 10.795809 3.608552 -2.749519 -4.182729 -0.657058 0.954856 -1.749306 0.756356 -9.922889 -2.593028 -89.469798 2.864536 9.228149 0.286365 0.280407 -3.739107 -1.332916 -1.980373 7.988782 1.882383 -3.014371 0.674555 -0.502557 -3.891105 -3.255902 -1.577573 -0.005579 0.002866 -0.000814 1.505371 8.115555 -0.810568 3.071817 1.638277 0.234750 2.963549 -4.245462 0.996868 0.004791 0.011529 -0.009708
-9.131731 89.189085 -3.104227 -132.427484 -5.526400 0.079532 0.130356 2.285721 0.240262 0.073586 1.306844 0.135976 0.092473 1.633527 0.170244 0.073586 1.306844 0.135976 2.208498 21.910714 -0.430669 2.468098 -2.306592 -0.966638 -2.591722 -1.514460 0.449536 7.923595 -2.201259 87.772488 3.475276 10.804540 3.610140 -2.749502 -4.184280 -0.658049 0.960919 -1.751582 0.756830 -9.908680 -2.576391 -89.475367 2.880427 9.221073 0.292580 0.276514 -3.737515 -1.331068 -1.987719 7.990693 1.882887 -3.014074 0.678105 -0.502277 -3.912548 -3.260504 -1.580384 -0.006839 0.002486 -0.001014 1.486877 8.121111 -0.816006 3.071478 1.636006 0.228650 2.971394 -4.251643 1.004063 0.004051 0.011851 -0.008219
-9.138365 89.188524 -3.104126 -132.422018 -5.527416 0.079845 0.129542 2.286830 0.238982 0.072949 1.307343 0.135175 0.091674 1.634152 0.169240 0.072949 1.307343 0.135175 2.209584 21.909360 -0.428181 2.468681 -2.308186 -0.964213 -2.595925 -1.515695 0.454336 7.924798 -2.198654 87.771776 3.480243 10.811414 3.611896 -2.747266 -4.188526 -0.661771 0.965304 -1.751245 0.759251 -9.898503 -2.561199 -89.484619 2.895233 9.214704 0.300304 0.272410 -3.733281 -1.334324 -1.995795 7.992708 1.882339 -3.010866 0.682735 -0.502647 -3.920737 -3.265029 -1.581098 -0.006807 0.002175 -0.000390 1.473504 8.126800 -0.818230 3.070223 1.634138 0.219294 2.981128 -4.259158 1.013439 0.002915 0.012552 -0.006694
-9.144974 89.187853 -3.103370 -132.418696 -5.526370 0.078458 0.130607 2.285773 0.239205 0.073513 1.306746 0.134678 0.092377 1.633405 0.168620 0.073513 1.306746 0.134678 2.208139 21.909491 -0.426037 2.466630 -2.308111 -0.961580 -2.604710 -1.512627 0.457648 7.928244 -2.198164 87.773884 3.481034 10.814321 3.612558 -2.744499 -4.195774 -0.664747 0.968911 -1.747522 0.762240 -9.895703 -2.547503 -89.493779 2.907644 9.209899 0.307865 0.274124 -3.726661 -1.340987 -2.002605 7.992837 1.875666 -3.005594 0.688558 -0.502061 -3.893579 -3.269563 -1.577580 -0.003865 0.002549 0.000935 1.466363 8.129910 -0.818078 3.068319 1.632642 0.208084 2.988605 -4.266344 1.025244 0.001069 0.012826 -0.006024
-9.151852 89.187027 -3.101729 -132.417335 -5.523511 0.077368 0.131827 2.283013 0.238638 0.074411 1.305145 0.133861 0.093496 1.631403 0.167602 0.074411 1.305145 0.133861 2.207216 21.911067 -0.423445 2.465053 -2.306331 -0.958588 -2.612045 -1.506651 0.461762 7.926076 -2.199812 87.778416 3.476883 10.818531 3.611478 -2.743035 -4.200367 -0.665612 0.974481 -1.742502 0.764951 -9.897655 -2.532824 -89.499630 2.918038 9.210597 0.313899 0.280348 -3.723237 -1.347739 -2.005884 7.991000 1.868156 -2.999367 0.694321 -0.499928 -3.872849 -3.274885 -1.573720 -0.000872 0.003753 0.001744 1.462846 8.130999 -0.818705 3.068188 1.631050 0.198349 2.989776 -4.272873 1.037135 -0.000942 0.012774 -0.005953
-9.158846 89.186009 -3.099408 -132.416950 -5.518610 0.075085 0.132863 2.278911 0.237245 0.075367 1.302685 0.133227 0.094689 1.628329 0.166812 0.075367 1.302685 0.133227 2.207341 21.913642 -0.420221 2.464469 -2.303354 -0.955161 -2.616526 -1.498418 0.466544 7.915552 -2.201049 87.784155 3.473483 10.825943 3.609759 -2.745271 -4.199321 -0.666239 0.980940 -1.734526 0.767077 -9.898063 -2.519455 -89.501301 2.926918 9.221751 0.319482 0.285642 -3.725517 -1.355185 -2.007728 7.985838 1.866019 -2.990727 0.701307 -0.497334 -3.882493 -3.282159 -1.571151 0.000317 0.005498 0.001262 1.460102 8.129988 -0.818664 3.070947 1.629351 0.189431 2.987362 -4.280638 1.047903 -0.002792 0.013774 -0.005267
-9.165784 89.184791 -3.096692 -132.415071 -5.511631 0.069967 0.134327 2.274111 0.236802 0.076453 1.299862 0.133578 0.096046 1.624799 0.167255 0.076453 1.299862 0.133578 2.205928 21.915983 -0.417385 2.462315 -2.300695 -0.951796 -2.619343 -1.490584 0.469955 7.901484 -2.199480 87.788431 3.474761 10.835194 3.610272 -2.750068 -4.199639 -0.666491 0.984329 -1.723810 0.767727 -9.895422 -2.510261 -89.499394 2.932618 9.239683 0.323506 0.288504 -3.729439 -1.360466 -2.011116 7.977723 1.868066 -2.982124 0.709350 -0.494653 -3.903085 -3.289891 -1.568820 0.000726 0.006810 0.000369 1.457846 8.124760 -0.815600 3.070519 1.631646 0.179637 2.986783 -4.291569 1.058850 -0.004735 0.015587 -0.004475
-9.173033 89.183412 -3.093543 -132.412300 -5.503576 0.064726 0.136129 2.269533 0.237454 0.077551 1.297132 0.134317 0.097421 1.621386 0.168181 0.077551 1.297132 0.134317 2.203173 21.917757 -0.415566 2.458944 -2.298727 -0.949214 -2.619490 -1.485161 0.471750 7.889901 -2.195259 87.790387 3.479287 10.842403 3.613807 -2.753574 -4.203569 -0.666078 0.985929 -1.713868 0.766300 -9.891339 -2.503334 -89.496933 2.934664 9.256707 0.325599 0.288115 -3.734959 -1.360945 -2.014467 7.969538 1.868978 -2.976883 0.715468 -0.493095 -3.913374 -3.296116 -1.565054 0.001741 0.007754 0.000165 1.456699 8.116519 -0.813072 3.065334 1.638030 0.170575 2.988340 -4.304862 1.071039 -0.006803 0.017281 -0.004970
-9.181159 89.181971 -3.090314 -132.409264 -5.497969 0.061549 0.138282 2.265603 0.238443 0.078777 1.294876 0.134748 0.098954 1.618565 0.168724 0.078777 1.294876 0.134748 2.199275 21.919759 -0.414826 2.454591 -2.296512 -0.947528 -2.621065 -1.479926 0.473135 7.885847 -2.189770 87.788920 3.485169 10.844506 3.620621 -2.753917 -4.208398 -0.668005 0.986384 -1.705068 0.763322 -9.887483 -2.494784 -89.495651 2.932268 9.266647 0.326691 0.284721 -3.741477 -1.357589 -2.015704 7.965494 1.867398 -2.976335 0.718655 -0.492922 -3.916073 -3.300743 -1.559477 0.003313 0.008514 0.000066 1.452144 8.111944 -0.813935 3.061926 1.642642 0.162440 2.990908 -4.317368 1.083159 -0.008612 0.018456 -0.005510
-9.190237 89.180559 -3.087551 -132.406165 -5.496953 0.059869 0.141328 2.262955 0.239290 0.080359 1.293390 0.134896 0.100932 1.616708 0.168914 0.080359 1.293390 0.134896 2.193597 21.921691 -0.413971 2.448294 -2.294436 -0.945309 -2.626369 -1.473083 0.475425 7.889391 -2.183819 87.783239 3.490635 10.841696 3.628354 -2.749949 -4.211845 -0.670450 0.984408 -1.697089 0.760012 -9.882056 -2.484355 -89.494458 2.925896 9.271417 0.326690 0.281344 -3.747008 -1.351888 -2.014836 7.967133 1.865952 -2.979328 0.719930 -0.492425 -3.925469 -3.304407 -1.555010 0.004752 0.008814 -0.000058 1.444147 8.112654 -0.816080 3.062765 1.647404 0.152918 2.992744 -4.329834 1.095514 -0.009981 0.018714 -0.005658
-9.199575 89.179215 -3.085788 -132.404810 -5.499224 0.056118 0.144288 2.262244 0.242780 0.081993 1.292631 0.134694 0.102972 1.615758 0.168667 0.081993 1.292631 0.134694 2.188177 21.922854 -0.411976 2.442003 -2.293270 -0.941924 -2.628841 -1.466121 0.478344 7.896261 -2.178133 87.775556 3.494852 10.836995 3.634363 -2.743277 -4.214299 -0.668897 0.984428 -1.691148 0.756742 -9.871195 -2.474365 -89.492663 2.917981 9.275792 0.326286 0.279802 -3.752393 -1.346655 -2.010617 7.973189 1.866831 -2.984470 0.720843 -0.492131 -3.939985 -3.316010 -1.551219 0.007353 0.016482 0.001132 1.438649 8.116947 -0.810928 3.064212 1.654111 0.141152 2.997220 -4.343821 1.106120 -0.012764 0.018655 -0.007032
-9.209206 89.177942 -3.084217 -132.406942 -5.501222 0.055186 0.147460 2.261156 0.243955 0.083691 1.291907 0.134125 0.105093 1.614853 0.167962 0.083691 1.291907 0.134125 2.183618 21.924503 -0.408851 2.436386 -2.291525 -0.937526 -2.625860 -1.459407 0.481823 7.900939 -2.172106 87.765394 3.499735 10.835827 3.641764 -2.736819 -4.216660 -0.667422 0.988392 -1.686183 0.754331 -9.853913 -2.464847 -89.492426 2.908796 9.281757 0.327484 0.280967 -3.758311 -1.344515 -2.002656 7.979002 1.863860 -2.990187 0.721297 -0.492843 -3.935562 -3.319946 -1.546922 0.010664 0.017842 0.003015 1.437303 8.122621 -0.810922 3.065275 1.657584 0.127943 2.999345 -4.355817 1.120064 -0.014210 0.018124 -0.007453
-9.218649 89.176773 -3.083058 -132.408411 -5.501279 0.054285 0.150165 2.258723 0.244981 0.085165 1.290532 0.133649 0.106934 1.613134 0.167372 0.085165 1.290532 0.133649 2.177884 21.927824 -0.405070 2.429366 -2.287861 -0.932155 -2.621570 -1.452841 0.485962 7.901623 -2.164102 87.751951 3.506024 10.840427 3.651010 -2.732326 -4.216738 -0.669466 0.994725 -1.679571 0.751704 -9.834427 -2.456342 -89.493014 2.897987 9.286522 0.328790 0.284886 -3.760762 -1.342548 -1.997449 7.983425 1.859025 -2.991791 0.721585 -0.492612 -3.926473 -3.323997 -1.542041 0.014083 0.019433 0.004574 1.434182 8.127986 -0.811072 3.067231 1.657673 0.115160 3.000985 -4.365189 1.133298 -0.015327 0.017197 -0.007741
